{"title":"Rilo Kiley - The Execution of All Things","uid":4848071,"size":336873099,"categoryP":"audio","categoryS":"flac","magnet":"?xt=urn:btih:39cf48b43b02f9cab8279679cbb5ef97c000c919&amp;dn=Rilo+Kiley+-+The+Execution+of+All+Things&amp;tr=udp%3A%2F%2Ftracker.openbittorrent.com%3A80&amp;tr=udp%3A%2F%2Fopen.demonii.com%3A1337&amp;tr=udp%3A%2F%2Ftracker.coppersurfer.tk%3A6969&amp;tr=udp%3A%2F%2Fexodus.desync.com%3A6969","seeders":1,"leechers":0,"uploader":"politux","files":14,"time":1239762471,"description":"Exact Audio Copy V0.99 prebeta 4 from 23. January 2008\n\nEAC extraction logfile from 14. April 2009, 17:17\n\nRilo Kiley / The Execution of All Things\n\nUsed drive  : ATAPI   DVD D  DH16D3P   Adapter: 0  ID: 1\n\nRead mode               : Secure\nUtilize accurate stream : Yes\nDefeat audio cache      : No\nMake use of C2 pointers : No\n\nRead offset correction                      : 6\nOverread into Lead-In and Lead-Out          : No\nFill up missing offset samples with silence : Yes\nDelete leading and trailing silent blocks   : No\nNull samples used in CRC calculations       : No\nUsed interface                              : Installed external ASPI interface\nGap handling                                : Not detected, thus appended to previous track\n\nUsed output format : Internal WAV Routines\nSample format      : 44.100 Hz; 16 Bit; Stereo\n\n\nTOC of the extracted CD\n\n     Track |   Start  |  Length  | Start sector | End sector \n    ---------------------------------------------------------\n        1  |  0:00.00 |  4:31.60 |         0    |    20384   \n        2  |  4:31.60 |  3:20.70 |     20385    |    35454   \n        3  |  7:52.55 |  4:13.30 |     35455    |    54459   \n        4  | 12:06.10 |  5:27.67 |     54460    |    79051   \n        5  | 17:34.02 |  3:35.10 |     79052    |    95186   \n        6  | 21:09.12 |  4:39.05 |     95187    |   116116   \n        7  | 25:48.17 |  3:20.53 |    116117    |   131169   \n        8  | 29:08.70 |  5:36.72 |    131170    |   156441   \n        9  | 34:45.67 |  2:50.03 |    156442    |   169194   \n       10  | 37:35.70 |  3:43.10 |    169195    |   185929   \n       11  | 41:19.05 |  6:20.20 |    185930    |   214449   \n       12  | 47:39.25 |  0:04.27 |    214450    |   214776   \n\n\nTrack  1\n\n     Filename E:MusicRilo KileyThe Execution of All ThingsRilo Kiley - The Execution of All Things - 01. The Good That Won't Come Out.wav\n\n     Peak level 99.9 %\n     Track quality 100.0 %\n     Copy CRC 6C78F642\n     Accurately ripped (confidence 25)  [BC13B5E2]\n     Copy OK\n\nTrack  2\n\n     Filename E:MusicRilo KileyThe Execution of All ThingsRilo Kiley - The Execution of All Things - 02. Paint's Peeling.wav\n\n     Peak level 99.0 %\n     Track quality 100.0 %\n     Copy CRC 2B87981D\n     Accurately ripped (confidence 26)  [00F7F141]\n     Copy OK\n\nTrack  3\n\n     Filename E:MusicRilo KileyThe Execution of All ThingsRilo Kiley - The Execution of All Things - 03. The Execution Of All Things.wav\n\n     Peak level 100.0 %\n     Track quality 100.0 %\n     Copy CRC 56503424\n     Accurately ripped (confidence 25)  [45FAE91E]\n     Copy OK\n\nTrack  4\n\n     Filename E:MusicRilo KileyThe Execution of All ThingsRilo Kiley - The Execution of All Things - 04. So Long.wav\n\n     Peak level 99.0 %\n     Track quality 100.0 %\n     Copy CRC BA9CF340\n     Accurately ripped (confidence 25)  [FF15FB51]\n     Copy OK\n\nTrack  5\n\n     Filename E:MusicRilo KileyThe Execution of All ThingsRilo Kiley - The Execution of All Things - 05. Capturing Moods.wav\n\n     Peak level 99.9 %\n     Track quality 100.0 %\n     Copy CRC EA5C6045\n     Accurately ripped (confidence 25)  [D5923A5F]\n     Copy OK\n\nTrack  6\n\n     Filename E:MusicRilo KileyThe Execution of All ThingsRilo Kiley - The Execution of All Things - 06. A Better Son,Daughter.wav\n\n     Peak level 100.0 %\n     Track quality 100.0 %\n     Copy CRC 002B7983\n     Accurately ripped (confidence 26)  [031E8C56]\n     Copy OK\n\nTrack  7\n\n     Filename E:MusicRilo KileyThe Execution of All ThingsRilo Kiley - The Execution of All Things - 07. Hail To Whatever You Found In The Sunlight That Surrounds You.wav\n\n     Peak level 100.0 %\n     Track quality 100.0 %\n     Copy CRC 6D6D51FA\n     Accurately ripped (confidence 25)  [F0A4EF14]\n     Copy OK\n\nTrack  8\n\n     Filename E:MusicRilo KileyThe Execution of All ThingsRilo Kiley - The Execution of All Things - 08. My Slumbering Heart.wav\n\n     Peak level 100.0 %\n     Track quality 100.0 %\n     Copy CRC 7033EC56\n     Accurately ripped (confidence 26)  [15D4A34F]\n     Copy OK\n\nTrack  9\n\n     Filename E:MusicRilo KileyThe Execution of All ThingsRilo Kiley - The Execution of All Things - 09. Three Hopeful Thoughts.wav\n\n     Peak level 99.9 %\n     Track quality 100.0 %\n     Copy CRC B007AAE6\n     Accurately ripped (confidence 25)  [869ABCE3]\n     Copy OK\n\nTrack 10\n\n     Filename E:MusicRilo KileyThe Execution of All ThingsRilo Kiley - The Execution of All Things - 10. With Arms Outstretched.wav\n\n     Peak level 99.0 %\n     Track quality 99.9 %\n     Copy CRC 6FCDA0FB\n     Accurately ripped (confidence 25)  [A1D344C2]\n     Copy OK\n\nTrack 11\n\n     Filename E:MusicRilo KileyThe Execution of All ThingsRilo Kiley - The Execution of All Things - 11. Spectacular Views.wav\n\n     Peak level 99.9 %\n     Track quality 100.0 %\n     Copy CRC 418EA269\n     Accurately ripped (confidence 25)  [80216E0D]\n     Copy OK\n\nTrack 12\n\n     Filename E:MusicRilo KileyThe Execution of All ThingsRilo Kiley - The Execution of All Things - 12. Untitled.wav\n\n     Peak level 0.0 %\n     Track quality 100.0 %\n     Track not present in AccurateRip database\n     Copy OK\n\n\n11 track(s) accurately ripped\n 1 track(s) not present in the AccurateRip database\n\nSome tracks could not be verified as accurate\n\nNo errors occurred\n\nEnd of status report\n","torrent":{"xt":"urn:btih:39cf48b43b02f9cab8279679cbb5ef97c000c919","amp;dn":"Rilo+Kiley+-+The+Execution+of+All+Things","amp;tr":["udp%3A%2F%2Ftracker.openbittorrent.com%3A80","udp%3A%2F%2Fopen.demonii.com%3A1337","udp%3A%2F%2Ftracker.coppersurfer.tk%3A6969","udp%3A%2F%2Fexodus.desync.com%3A6969"],"infoHash":"39cf48b43b02f9cab8279679cbb5ef97c000c919","infoHashBuffer":{"type":"Buffer","data":[57,207,72,180,59,2,249,202,184,39,150,121,203,181,239,151,192,0,201,25]},"announce":[],"urlList":[]}}